<svg width="156" height="38" viewBox="0 0 156 38" fill="none" xmlns="http://www.w3.org/2000/svg">
<g clip-path="url(#clip0)">
<path d="M49.4 3.69177H51.9366C53.3317 3.69177 54.4732 4.64655 54.4732 6.04688V7.76547C54.4732 9.29311 53.2049 10.1842 51.9366 10.1842H49.4V3.69177ZM51.9366 9.16581C52.5708 9.16581 53.3317 8.84755 53.3317 7.89278V5.98323C53.3317 5.21941 52.6342 4.77385 51.8732 4.77385H50.6683V9.16581H51.9366Z" fill="#22AADE"/>
<path d="M55.7415 3.69177H56.9463V10.1842H55.7415V3.69177Z" fill="#22AADE"/>
<path d="M58.3416 3.69177H60.8781C62.083 3.69177 63.0976 4.39194 63.0976 5.72862C63.0976 6.49244 62.7172 7.31991 61.8294 7.63817L63.4147 10.2479H62.083L60.5611 7.82912H59.5464V10.2479H58.3416V3.69177ZM60.7513 6.74705C61.4489 6.74705 61.8928 6.42879 61.8928 5.72862C61.8928 4.9648 61.3855 4.7102 60.6879 4.7102H59.483V6.74705H60.7513Z" fill="#22AADE"/>
<path d="M64.3025 3.69177H68.8049V4.77385H65.5074V6.36514H68.4244V7.44722H65.5074V9.16581H68.8049V10.2479H64.3025V3.69177Z" fill="#22AADE"/>
<path d="M69.6927 8.08366V6.04681C69.6927 4.51917 70.8342 3.62805 72.2927 3.62805C73.4976 3.62805 74.7659 4.32822 74.7659 5.79221V5.98316H73.561V5.85586C73.561 5.02839 72.8001 4.64648 72.2293 4.64648C71.5952 4.64648 70.8342 4.96474 70.8342 5.91951V8.02001C70.8342 8.78383 71.5318 9.22939 72.2927 9.22939C72.8635 9.22939 73.561 8.91113 73.561 8.02001V7.95636H74.7025V8.14731C74.7025 9.6113 73.4976 10.3115 72.2927 10.3115C70.8976 10.3751 69.6927 9.54765 69.6927 8.08366Z" fill="#22AADE"/>
<path d="M75.717 8.08366V6.04681C75.717 4.51917 76.8585 3.62805 78.317 3.62805C79.5219 3.62805 80.7902 4.32822 80.7902 5.79221V5.98316H79.6487V5.85586C79.6487 5.02839 78.8878 4.64648 78.317 4.64648C77.6829 4.64648 76.9219 4.96474 76.9219 5.91951V8.02001C76.9219 8.78383 77.6195 9.22939 78.3805 9.22939C78.9512 9.22939 79.6487 8.91113 79.6487 8.02001V7.95636H80.7902V8.14731C80.7902 9.6113 79.5853 10.3115 78.3805 10.3115C76.9219 10.3751 75.717 9.54765 75.717 8.08366Z" fill="#22AADE"/>
<path d="M81.9318 3.69177H83.1367V10.1842H81.9318V3.69177Z" fill="#22AADE"/>
<path d="M84.4049 8.0837V6.04685C84.4049 4.51921 85.7366 3.62809 87.0049 3.62809C88.4 3.62809 89.6049 4.58286 89.6049 5.9832V7.9564C89.6049 9.48404 88.2732 10.3752 87.0049 10.3752C85.6098 10.3752 84.4049 9.54769 84.4049 8.0837ZM88.4 8.02005V5.91955C88.4 5.15573 87.7025 4.71017 86.9415 4.71017C86.3073 4.71017 85.5464 5.02842 85.5464 5.9832V8.0837C85.5464 8.84752 86.2439 9.29308 87.0049 9.29308C87.639 9.29308 88.4 8.97482 88.4 8.02005ZM87.2586 1.52759H88.5269L87.3854 3.11888H86.4976L87.2586 1.52759Z" fill="#22AADE"/>
<path d="M90.8097 3.69177H91.9512L94.7415 8.14738V3.69177H95.8829V10.1842H94.678L91.8878 5.72862V10.1842H90.7463V3.69177H90.8097Z" fill="#22AADE"/>
<path d="M99.561 8.08366V6.04681C99.561 4.51917 100.703 3.62805 102.161 3.62805C103.366 3.62805 104.634 4.26457 104.634 5.6649V5.72855H103.493C103.493 4.90108 102.732 4.64648 102.161 4.64648C101.527 4.64648 100.766 4.96474 100.766 5.91951V8.02001C100.766 8.78383 101.463 9.22939 102.224 9.22939C102.922 9.22939 103.493 8.91113 103.493 8.02001V7.82906H102.288V6.74698H104.634V8.14731C104.634 9.6113 103.429 10.3115 102.224 10.3115C100.766 10.3751 99.561 9.54765 99.561 8.08366Z" fill="#22AADE"/>
<path d="M105.839 3.69177H110.342V4.77385H107.044V6.36514H109.961V7.44722H107.044V9.16581H110.342V10.2479H105.839V3.69177Z" fill="#22AADE"/>
<path d="M111.546 3.69177H112.688L115.478 8.14738V3.69177H116.619V10.1842H115.415L112.624 5.72862V10.1842H111.483V3.69177H111.546Z" fill="#22AADE"/>
<path d="M118.078 3.69177H122.581V4.77385H119.283V6.36514H122.2V7.44722H119.283V9.16581H122.581V10.2479H118.078V3.69177Z" fill="#22AADE"/>
<path d="M123.849 3.69177H126.385C127.59 3.69177 128.605 4.39194 128.605 5.72862C128.605 6.49244 128.224 7.31991 127.337 7.63817L128.922 10.2479H127.59L126.068 7.82912H125.054V10.2479H123.849V3.69177ZM126.259 6.74705C126.956 6.74705 127.4 6.42879 127.4 5.72862C127.4 4.9648 126.893 4.7102 126.195 4.7102H124.99V6.74705H126.259Z" fill="#22AADE"/>
<path d="M132.029 3.69177H133.107L135.517 10.2479H134.249L133.805 8.84755H131.268L130.761 10.2479H129.556L132.029 3.69177ZM133.424 7.82912L132.537 5.21941L131.649 7.82912H133.424Z" fill="#22AADE"/>
<path d="M136.342 3.69177H137.546V9.16581H140.337V10.2479H136.342V3.69177Z" fill="#22AADE"/>
<path d="M143.824 3.69177H146.361C147.756 3.69177 148.898 4.64655 148.898 6.04688V7.76547C148.898 9.29311 147.629 10.1842 146.361 10.1842H143.824V3.69177ZM146.298 9.16581C146.932 9.16581 147.693 8.84755 147.693 7.89278V5.98323C147.693 5.21941 146.995 4.77385 146.234 4.77385H145.029V9.16581H146.298Z" fill="#22AADE"/>
<path d="M150.102 3.69177H154.605V4.77385H151.307V6.36514H154.224V7.44722H151.307V9.16581H154.605V10.2479H150.102V3.69177Z" fill="#22AADE"/>
<path d="M49.4 14.0033H58.1512C62.7171 14.0033 65.3171 16.6767 65.3171 20.4321C65.3171 22.9145 64.1122 25.3333 61.5756 26.4154L66.1415 34.3718H60.6878L56.6927 27.1792H54.4098V34.3718H49.4V14.0033ZM57.5805 23.3601C59.4195 23.3601 60.4976 22.278 60.4976 20.6231C60.4976 18.9045 59.3561 17.9497 57.5805 17.9497H54.4732V23.3601H57.5805Z" fill="#22AADE"/>
<path d="M68.4878 14.0033H83.2634V18.1406H73.561V22.0234H81.7414V26.0971H73.561V30.1708H83.3268V34.3082H68.4878V14.0033Z" fill="#22AADE"/>
<path d="M86.3073 14.0033H91.1902L98.8 25.4606H98.8634V14.0033H103.493V34.3082H98.8L90.9366 22.3417H90.8732V34.3082H86.2439V14.0033H86.3073Z" fill="#22AADE"/>
<path d="M111.61 18.077H105.902V14.0033H122.327V18.077H116.62V34.3082H111.61V18.077Z" fill="#22AADE"/>
<path d="M128.161 13.9397H133.551L140.59 34.3082H135.454L134.249 30.4891H127.083L125.815 34.3082H121.059L128.161 13.9397ZM132.917 26.5427L130.634 19.1591H130.571L128.224 26.5427H132.917Z" fill="#22AADE"/>
<path d="M154.288 19.2227C151.498 17.6951 150.102 17.6315 148.517 17.6315C147.059 17.6315 145.79 18.1407 145.79 19.541C145.79 20.6867 146.932 21.1959 148.454 21.5779L151.624 22.4053C154.478 23.1691 156.063 25.397 156.063 28.0067C156.063 32.7805 152.639 34.6264 148.454 34.6264C145.917 34.6264 144.459 34.3718 141.795 33.0351V28.5159C143.507 29.5343 145.346 30.68 148.263 30.68C149.785 30.68 151.434 30.1708 151.434 28.7705C151.434 27.4975 150.419 27.0519 149.215 26.7336L145.727 25.8425C143 25.0787 140.971 23.4874 140.971 20.2412C140.971 16.4221 144.205 13.6851 148.644 13.6851C150.61 13.6851 152.259 14.1306 154.415 15.0217V19.2227H154.288Z" fill="#22AADE"/>
<path d="M21.9415 0C13.2537 0 5.89756 5.9196 3.67805 14.0034H0L9.38536 22.2144C9.13171 21.005 9.00488 20.3049 9.00488 18.9682C9.00488 17.1859 9.38536 15.531 10.0195 13.9397C11.9854 9.22948 16.6146 5.9196 22.0049 5.9196C26.8878 5.9196 31.2 8.65662 33.3561 12.6667V3.8191C30.1854 1.40034 26.2537 0 21.9415 0Z" fill="#F4B34C"/>
<path d="M34.4976 15.8492C34.7512 16.8677 34.8781 17.7588 34.8781 18.9682C34.8781 20.7504 34.4976 22.469 33.8634 24.0603C31.8976 28.7069 27.2683 32.0167 21.9415 32.0167C16.9317 32.0167 12.5561 29.1524 10.4 24.9514V34.0536C13.5708 36.536 17.5659 38 21.9415 38C30.6293 38 37.9854 32.0804 40.2049 24.0603H43.8829L34.4976 15.8492Z" fill="#ED8829"/>
</g>
<defs>
<clipPath id="clip0">
<rect width="156" height="38" fill="white"/>
</clipPath>
</defs>
</svg>
