<svg xmlns="http://www.w3.org/2000/svg" width="283.932" height="92.028" viewBox="0 0 283.932 92.028">
    <defs>
        <style>
            .cls-1{fill:#00a7e5}.cls-2{fill:#f8ae41}.cls-3{fill:#e3b154}
        </style>
    </defs>
    <g id="cidi" transform="translate(-7 -8)">
        <g id="Grupo_2303" data-name="Grupo 2303" transform="translate(7 8)">
            <path id="Trazado_3275" d="M139.912 365.613a33.569 33.569 0 0 1 43.888-50.592l8.177-9.451a46.018 46.018 0 1 0 0 72.582L183.8 368.7a33.613 33.613 0 0 1-43.884-3.088" class="cls-1" data-name="Trazado 3275" transform="translate(-117.646 -295.852)"/>
            <path id="Trazado_3276" d="M148.022 310.891a33.624 33.624 0 0 1 0 47.5c-.021.023-.044.039-.064.062l8.154 9.423c.237-.23.481-.444.715-.681a46.092 46.092 0 0 0 0-65.109c-.235-.235-.478-.451-.715-.678l-8.154 9.423c.021.021.044.037.064.06" class="cls-2" data-name="Trazado 3276" transform="translate(-78.255 -288.631)"/>
            <path id="Trazado_3277" d="M130.309 334.611a4.761 4.761 0 1 1 4.615-5.891h14.041a3.474 3.474 0 0 0 3.47-3.47v-3.291H145.2a4.761 4.761 0 1 1 0-2.26h24.842v-4.839a3.472 3.472 0 0 0-3.468-3.468h-11.322a4.762 4.762 0 1 1 0-2.263h11.323a5.736 5.736 0 0 1 5.73 5.73v4.841h15.646v2.26H154.7v3.291a5.739 5.739 0 0 1-5.733 5.73h-14.043a4.749 4.749 0 0 1-4.615 3.631m0-7.262a2.5 2.5 0 1 0 2.5 2.5 2.5 2.5 0 0 0-2.5-2.5m10.274-9.019a2.5 2.5 0 1 0 2.5 2.5 2.5 2.5 0 0 0-2.5-2.5m10.053-10.571a2.5 2.5 0 1 0 2.5 2.5 2.5 2.5 0 0 0-2.5-2.5" class="cls-3" data-name="Trazado 3277" transform="translate(-107.383 -283.315)"/>
            <path id="Trazado_3278" d="M148.765 330.429a5.385 5.385 0 0 0 5.379-5.379v-3.642H187.4v-1.555h-15.649v-5.19a5.383 5.383 0 0 0-5.376-5.379h-11.609a4.408 4.408 0 1 0 0 1.554h11.608a3.828 3.828 0 0 1 3.822 3.824v5.19h-25.481a4.411 4.411 0 1 0 0 1.555h7.871v3.642a3.824 3.824 0 0 1-3.822 3.822h-14.328a4.409 4.409 0 1 0 0 1.557zm1.669-17.513a2.854 2.854 0 1 1 2.854-2.854 2.856 2.856 0 0 1-2.854 2.854m-10.049 10.569a2.854 2.854 0 1 1 2.851-2.854 2.855 2.855 0 0 1-2.851 2.854m-10.279 9.015a2.853 2.853 0 1 1 2.854-2.854 2.858 2.858 0 0 1-2.854 2.854" class="cls-2" data-name="Trazado 3278" transform="translate(-107.183 -283.116)"/>
            <path id="Trazado_3279" d="M146.1 340.611a4.762 4.762 0 1 1 4.617-5.891h11.737a3.474 3.474 0 0 0 3.468-3.47v-4.838h-24.368a4.76 4.76 0 1 1 0-2.263h8.931v-2.822a5.738 5.738 0 0 1 5.733-5.73h23.5v2.26h-23.5a3.474 3.474 0 0 0-3.47 3.47v2.822h26.585v2.263h-11.144v4.838a5.737 5.737 0 0 1-5.73 5.73h-11.737a4.752 4.752 0 0 1-4.617 3.631m0-7.262a2.5 2.5 0 1 0 2.5 2.5 2.5 2.5 0 0 0-2.5-2.5m-9.168-10.569a2.5 2.5 0 1 0 2.5 2.5 2.505 2.505 0 0 0-2.5-2.5" class="cls-3" data-name="Trazado 3279" transform="translate(-98.767 -270.192)"/>
            <path id="Trazado_3280" d="M156.019 317.307h23.152v-1.557h-23.152a5.384 5.384 0 0 0-5.379 5.379v3.171h-9.573a4.409 4.409 0 1 0 0 1.557h25.014v5.192a3.826 3.826 0 0 1-3.822 3.822h-12.023a4.409 4.409 0 1 0 0 1.557h12.024a5.387 5.387 0 0 0 5.379-5.379v-5.192h11.144V324.3h-26.588v-3.173a3.826 3.826 0 0 1 3.824-3.822m-19.282 10.626a2.853 2.853 0 1 1 2.854-2.851 2.856 2.856 0 0 1-2.854 2.851m9.168 10.571a2.854 2.854 0 1 1 2.854-2.854 2.856 2.856 0 0 1-2.854 2.854" class="cls-2" data-name="Trazado 3280" transform="translate(-98.568 -269.993)"/>
            <path id="Rectángulo_2727" d="M0 0h4.101v22.058H0z" class="cls-1" data-name="Rectángulo 2727" transform="translate(128.786 14.81)"/>
            <path id="Trazado_3281" d="M189.826 322.629a8.1 8.1 0 0 1-5.588 2.15 7.967 7.967 0 0 1-7.142-4.167 10.117 10.117 0 0 1-.761-4.3v-14.02h4.065v14.02c0 2.615.892 4.663 3.8 4.663 2.943 0 3.8-2.049 3.8-4.663v-14.02h4.066v14.02c0 2.449-.4 4.6-2.249 6.317" class="cls-1" data-name="Trazado 3281" transform="translate(-41.379 -287.482)"/>
            <path id="Trazado_3282" d="M195.891 323.521a17.283 17.283 0 0 1-5.953.826h-5.089v-22.055h5.024c3.109 0 6.579.494 9.026 2.578a11.594 11.594 0 0 1 3.64 8.5c0 4.4-2.382 8.632-6.648 10.152m-1.72-16.766a14.64 14.64 0 0 0-5.225-.628v14.418h.86a9.956 9.956 0 0 0 5.356-1.092 6.914 6.914 0 0 0 3.309-6.052 7.092 7.092 0 0 0-4.3-6.646" class="cls-1" data-name="Trazado 3282" transform="translate(-30.315 -287.482)"/>
            <path id="Trazado_3283" d="M209.847 324.35l-2.348-5.687h-7.8l-2.447 5.687h-4.5l9.159-22.059h3.208l9.26 22.059zm-6.319-16.269l-2.38 6.779h4.728z" class="cls-1" data-name="Trazado 3283" transform="translate(-20.05 -287.484)"/>
            <path id="Trazado_3284" d="M214.334 323.521a17.29 17.29 0 0 1-5.953.826h-5.091v-22.055h5.027c3.109 0 6.579.494 9.026 2.578a11.594 11.594 0 0 1 3.64 8.5c0 4.4-2.382 8.632-6.648 10.152m-1.72-16.766a14.653 14.653 0 0 0-5.225-.628v14.418h.86a9.956 9.956 0 0 0 5.356-1.092 6.913 6.913 0 0 0 3.309-6.052 7.092 7.092 0 0 0-4.3-6.646" class="cls-1" data-name="Trazado 3284" transform="translate(-6.351 -287.482)"/>
            <path id="Trazado_3285" d="M228.382 324.35l-2.348-5.687h-7.8l-2.447 5.687h-4.5l9.159-22.059h3.208l9.26 22.059zm-6.317-16.269l-2.38 6.779h4.728z" class="cls-1" data-name="Trazado 3285" transform="translate(4.04 -287.484)"/>
            <path id="Trazado_3286" d="M234.9 324.349l-9.26-16v16h-4.1v-22.057h4.66l9.159 16.039v-16.039h4.1v22.058z" class="cls-1" data-name="Trazado 3286" transform="translate(17.363 -287.483)"/>
            <path id="Trazado_3287" d="M242.2 325.022a11.459 11.459 0 1 1 11.5-11.442 11.489 11.489 0 0 1-11.5 11.442m0-19.114a7.658 7.658 0 1 0 7.439 7.671 7.567 7.567 0 0 0-7.439-7.671" class="cls-1" data-name="Trazado 3287" transform="translate(29.211 -287.725)"/>
            <path id="Trazado_3288" d="M181.119 349.582a28.284 28.284 0 0 1-9.709 1.345h-8.3v-35.969h8.2c5.07 0 10.732.809 14.724 4.208 3.829 3.291 5.93 8.9 5.93 13.857 0 7.174-3.882 14.075-10.838 16.559m-2.805-27.344c-2.7-1.023-5.661-1.023-8.517-1.023v23.513h1.4c3.074 0 6.041-.163 8.738-1.78a11.273 11.273 0 0 0 5.392-9.87c0-4.583-2.64-9.168-7.011-10.84" class="cls-1" data-name="Trazado 3288" transform="translate(-58.569 -271.023)"/>
            <path id="Rectángulo_2728" d="M0 0h6.686v35.969H0z" class="cls-1" data-name="Rectángulo 2728" transform="translate(138.344 43.935)"/>
            <path id="Rectángulo_2729" d="M0 0h6.687v35.969H0z" class="cls-1" data-name="Rectángulo 2729" transform="translate(193.945 43.935)"/>
            <path id="Trazado_3289" d="M220.049 321.214v29.714h-6.635v-29.714h-6.687v-6.255h19.955v6.255z" class="cls-1" data-name="Trazado 3289" transform="translate(-1.883 -271.022)"/>
            <path id="Trazado_3290" d="M244.137 350.927l-3.826-9.274h-12.729l-3.992 9.274h-7.335l14.938-35.969h5.231l15.1 35.969zm-10.3-26.532l-3.882 11.058h7.71z" class="cls-1" data-name="Trazado 3290" transform="translate(10.498 -271.023)"/>
            <path id="Trazado_3291" d="M233.453 350.928v-35.969h6.687v29.767h10.946v6.2z" class="cls-1" data-name="Trazado 3291" transform="translate(32.847 -271.022)"/>
            <path id="Trazado_3292" d="M174.67 321.113a7.55 7.55 0 1 1 6.542-11.514l2.794-2.794a11.457 11.457 0 1 0 0 13.514l-2.734-2.734a7.69 7.69 0 0 1-6.6 3.527" class="cls-1" data-name="Trazado 3292" transform="translate(-58.308 -287.725)"/>
            <path id="Trazado_3293" d="M204.035 339.245h9.2a11.645 11.645 0 0 1-10.624 6.577 12.485 12.485 0 1 1-.322-24.968 13.407 13.407 0 0 1 10.647 5.367l4.493-4.5a19.918 19.918 0 0 0-14.979-7.071c-10.3 0-19.2 8.251-19.2 18.711 0 10.626 8.952 18.661 19.36 18.661 10.031 0 19.038-7.984 19.038-18.231v-.752h-17.613z" class="cls-1" data-name="Trazado 3293" transform="translate(-32.385 -271.418)"/>
        </g>
    </g>
</svg>
